#!OML:ASF G:\JayActor3\Patient Classification 1\Patient 1\Session 6\male.ASF
:FULLY-SPECIFIED
:DEGREES
2198
root 8.05498 15.0446 -19.0778 190.088 -51.3323 -177.017
lowerback 34.7291 -1.09721 0.366822
upperback 14.802 -4.35011 -3.01144
thorax -1.56444 -3.11961 -1.93129
lowerneck -1.43235 0.0601939 1.44124
upperneck -41.1365 -3.31912 3.36336
head -13.7965 -4.27149 1.99178
rclavicle 9.38264e-014 5.40694e-014
rhumerus 31.7304 -20.9631 -15.8912
rradius 128.999
rwrist -42.6217
rhand -43.547 -5.38961
rfingers 7.12502
rthumb -16.3851 -34.7175
lclavicle 9.38264e-014 5.40694e-014
lhumerus -10.0903 -8.79841 64.8329
lradius 61.992
lwrist 21.664
lhand -19.4937 7.69299
lfingers 7.12502
lthumb 6.8286 37.5629
rfemur -53.267 -5.27045 22.7049
rtibia 64.893
rfoot -23.2017 -16.0127
rtoes -7.7305
lfemur -53.5986 12.5996 -25.3455
ltibia 59.5776
lfoot -18.9331 11.3623
ltoes -0.41327
2199
root 8.05558 15.0429 -19.0777 190.084 -51.3295 -177.014
lowerback 34.7237 -1.10361 0.364988
upperback 14.765 -4.34968 -3.01077
thorax -1.60267 -3.11636 -1.92786
lowerneck -1.45894 0.0488047 1.4363
upperneck -41.1949 -3.35677 3.37465
head -13.8188 -4.29716 2.00542
rclavicle 8.26944e-014 -2.70347e-014
rhumerus 31.6977 -21.1064 -15.798
rradius 128.994
rwrist -42.5073
rhand -43.587 -5.39994
rfingers 7.12502
rthumb -16.4236 -34.7247
lclavicle 8.26944e-014 -2.70347e-014
lhumerus -10.1202 -8.7678 64.8707
lradius 61.9984
lwrist 21.8333
lhand -19.4705 7.70895
lfingers 7.12502
lthumb 6.85094 37.5781
rfemur -53.2799 -5.28464 22.7132
rtibia 64.9151
rfoot -23.2038 -16.0031
rtoes -7.78233
lfemur -53.6139 12.5879 -25.3362
ltibia 59.6024
lfoot -18.948 11.3787
ltoes -0.404977
2200
root 8.05615 15.0411 -19.0777 190.082 -51.3311 -177.014
lowerback 34.7193 -1.11239 0.364184
upperback 14.7288 -4.35194 -3.00859
thorax -1.64039 -3.11449 -1.92255
lowerneck -1.47751 0.042541 1.42179
upperneck -41.2567 -3.38593 3.387
head -13.8443 -4.31745 2.02075
rclavicle -6.36111e-015 3.97569e-014
rhumerus 31.6622 -21.2474 -15.6966
rradius 129.014
rwrist -42.343
rhand -43.6378 -5.41977
rfingers 7.12502
rthumb -16.4725 -34.7405
lclavicle -6.36111e-015 3.97569e-014
lhumerus -10.1561 -8.73593 64.9085
lradius 62.0103
lwrist 22.018
lhand -19.4284 7.73295
lfingers 7.12502
lthumb 6.89157 37.6008
rfemur -53.2924 -5.30461 22.7209
rtibia 64.9373
rfoot -23.2089 -15.9879
rtoes -7.81329
lfemur -53.6276 12.5742 -25.3281
ltibia 59.6237
lfoot -18.9603 11.3948
ltoes -0.407438
2201
root 8.05683 15.0392 -19.0779 190.088 -51.3334 -177.019
lowerback 34.7126 -1.12107 0.360627
upperback 14.6935 -4.35496 -3.00668
thorax -1.67619 -3.11309 -1.91602
lowerneck -1.49227 0.0381589 1.39439
upperneck -41.3202 -3.40832 3.41187
head -13.871 -4.33417 2.04302
rclavicle -2.54444e-014 1.24837e-013
rhumerus 31.6213 -21.3877 -15.5924
rradius 129.05
rwrist -42.1323
rhand -43.7027 -5.40949
rfingers 7.12502
rthumb -16.535 -34.725
lclavicle -2.54444e-014 1.24837e-013
lhumerus -10.1958 -8.71368 64.944
lradius 62.031
lwrist 22.252
lhand -19.4199 7.77306
lfingers 7.12502
lthumb 6.89982 37.6406
rfemur -53.3107 -5.32544 22.7261
rtibia 64.9609
rfoot -23.213 -15.9735
rtoes -7.85722
lfemur -53.6455 12.5606 -25.3238
ltibia 59.6426
lfoot -18.9711 11.4083
ltoes -0.407258
2202
root 8.05757 15.037 -19.078 190.1 -51.3344 -177.029
lowerback 34.7045 -1.12938 0.356831
upperback 14.6608 -4.35844 -3.00949
thorax -1.70916 -3.11192 -1.9143
lowerneck -1.5139 0.0351661 1.36094
upperneck -41.3772 -3.4233 3.4502
head -13.8926 -4.34794 2.07047
rclavicle -1.38354e-013 -3.73715e-014
rhumerus 31.5678 -21.535 -15.4973
rradius 129.094
rwrist -41.8847
rhand -43.753 -5.35423
rfingers 7.12502
rthumb -16.5834 -34.6657
lclavicle -1.38354e-013 -3.73715e-014
lhumerus -10.2335 -8.70024 64.9684
lradius 62.059
lwrist 22.5214
lhand -19.4175 7.82977
lfingers 7.12502
lthumb 6.90217 37.6973
rfemur -53.3332 -5.34537 22.7286
rtibia 64.9846
rfoot -23.2123 -15.9641
rtoes -7.94456
lfemur -53.6654 12.5488 -25.3234
ltibia 59.6593
lfoot -18.9799 11.4204
ltoes -0.407948
2203
root 8.0584 15.035 -19.0782 190.115 -51.3314 -177.04
lowerback 34.6954 -1.13651 0.354602
upperback 14.6309 -4.36102 -3.01808
thorax -1.7393 -3.11023 -1.91989
lowerneck -1.54508 0.027774 1.3279
upperneck -41.4256 -3.43922 3.50345
head -13.9077 -4.36378 2.10319
rclavicle -1.11319e-014 6.36111e-015
rhumerus 31.503 -21.6939 -15.4174
rradius 129.13
rwrist -41.618
rhand -43.7933 -5.25266
rfingers 7.12502
rthumb -16.6222 -34.5609
lclavicle -1.11319e-014 6.36111e-015
lhumerus -10.265 -8.69044 64.9795
lradius 62.0897
lwrist 22.8098
lhand -19.3894 7.90006
lfingers 7.12502
lthumb 6.92927 37.7667
rfemur -53.3579 -5.36073 22.7309
rtibia 65.0062
rfoot -23.2068 -15.9634
rtoes -8.04299
lfemur -53.6859 12.5412 -25.3246
ltibia 59.6728
lfoot -18.987 11.4339
ltoes -0.41815
2204
root 8.05931 15.0332 -19.0784 190.128 -51.3249 -177.048
lowerback 34.6885 -1.14219 0.354598
upperback 14.6036 -4.36227 -3.03155
thorax -1.7679 -3.10789 -1.93217
lowerneck -1.5913 0.0149464 1.3034
upperneck -41.4629 -3.46074 3.56242
head -13.9142 -4.38397 2.13614
rclavicle 2.8625e-014 -7.15625e-014
rhumerus 31.4276 -21.8713 -15.3564
rradius 129.145
rwrist -41.3465
rhand -43.8079 -5.09867
rfingers 7.12502
rthumb -16.6363 -34.4057
lclavicle 2.8625e-014 -7.15625e-014
lhumerus -10.282 -8.68162 64.9754
lradius 62.1169
lwrist 23.1081
lhand -19.3212 7.98499
lfingers 7.12502
lthumb 6.99511 37.8494
rfemur -53.3807 -5.3715 22.7347
rtibia 65.0231
rfoot -23.2002 -15.963
rtoes -8.15813
lfemur -53.705 12.5365 -25.3242
ltibia 59.6831
lfoot -18.9949 11.4487
ltoes -0.426755
2205
root 8.06028 15.0318 -19.0786 190.138 -51.3142 -177.054
lowerback 34.6881 -1.14483 0.351895
upperback 14.5771 -4.3615 -3.04605
thorax -1.79769 -3.1049 -1.94452
lowerneck -1.64929 -0.00512299 1.28907
upperneck -41.4937 -3.49493 3.61817
head -13.9151 -4.4112 2.16653
rclavicle -7.63333e-014 -5.56597e-015
rhumerus 31.3478 -22.0675 -15.3108
rradius 129.136
rwrist -41.0922
rhand -43.816 -4.91947
rfingers 7.12502
rthumb -16.644 -34.2258
lclavicle -7.63333e-014 -5.56597e-015
lhumerus -10.2856 -8.67594 64.9653
lradius 62.1399
lwrist 23.4338
lhand -19.2544 8.09413
lfingers 7.12502
lthumb 7.0596 37.9564
rfemur -53.398 -5.37797 22.7394
rtibia 65.0349
rfoot -23.194 -15.9657
rtoes -8.26302
lfemur -53.7185 12.5372 -25.3232
ltibia 59.6899
lfoot -19.0038 11.4628
ltoes -0.432222
2206
root 8.06121 15.0309 -19.0789 190.138 -51.3032 -177.051
lowerback 34.6933 -1.14698 0.354406
upperback 14.5502 -4.3587 -3.05903
thorax -1.82993 -3.10083 -1.95839
lowerneck -1.71136 -0.0279611 1.28269
upperneck -41.5216 -3.53698 3.66258
head -13.9141 -4.44171 2.19132
rclavicle 3.18055e-014 5.24792e-014
rhumerus 31.2617 -22.2795 -15.2751
rradius 129.105
rwrist -40.8766
rhand -43.8202 -4.72605
rfingers 7.12502
rthumb -16.6481 -34.0321
lclavicle 3.18055e-014 5.24792e-014
lhumerus -10.2729 -8.67023 64.9523
lradius 62.1516
lwrist 23.761
lhand -19.178 8.21878
lfingers 7.12502
lthumb 7.13334 38.0786
rfemur -53.4085 -5.3821 22.7507
rtibia 65.0416
rfoot -23.1945 -15.9617
rtoes -8.33647
lfemur -53.7276 12.5404 -25.3149
ltibia 59.6941
lfoot -19.0152 11.4774
ltoes -0.436777
